<svg width="18" height="18" viewBox="0 0 18 18" fill="none" xmlns="http://www.w3.org/2000/svg">
<path d="M13.455 4.45498C13.6663 4.25381 13.9475 4.1426 14.2392 4.14481C14.531 4.14702 14.8104 4.26247 15.0187 4.46681C15.2269 4.67115 15.3476 4.9484 15.3553 5.24004C15.363 5.53169 15.2571 5.81492 15.06 6.02998L9.07499 13.515C8.97208 13.6258 8.84787 13.7148 8.70979 13.7765C8.57171 13.8383 8.4226 13.8715 8.27137 13.8743C8.12014 13.8771 7.9699 13.8494 7.82963 13.7928C7.68936 13.7362 7.56194 13.6519 7.45499 13.545L3.48599 9.57598C3.37546 9.47299 3.28681 9.34879 3.22532 9.21079C3.16383 9.07279 3.13077 8.92382 3.1281 8.77276C3.12544 8.62171 3.15323 8.47167 3.20981 8.33158C3.26639 8.1915 3.35061 8.06425 3.45743 7.95742C3.56426 7.85059 3.69151 7.76638 3.8316 7.7098C3.97168 7.65321 4.12172 7.62543 4.27278 7.62809C4.42383 7.63076 4.5728 7.66382 4.7108 7.72531C4.8488 7.7868 4.973 7.87545 5.07599 7.98598L8.21699 11.1255L13.4265 4.48798C13.4359 4.47643 13.4459 4.46541 13.4565 4.45498H13.455Z" fill="#E63946"/>
</svg>
