<svg width="256" height="256" viewBox="0 0 256 256" fill="none" xmlns="http://www.w3.org/2000/svg">
<path d="M10 93.0968V164.452H43.7861C51.6797 164.452 58.6206 162.991 64.6089 160.068C70.5971 157.146 75.2585 153.035 78.5928 147.734C81.9953 142.366 83.6965 136.046 83.6965 128.774C83.6965 121.435 81.9953 115.115 78.5928 109.814C75.2585 104.514 70.5971 100.402 64.6089 97.48C58.6206 94.5578 51.6797 93.0968 43.7861 93.0968H10Z" fill="#1D3557"/>
<path d="M200.557 163.228C205.388 164.995 210.628 165.879 216.276 165.879C222.877 165.879 228.763 164.723 233.935 162.413C239.174 160.034 243.53 156.705 247 152.423L246.272 151.766L246.553 151.71L221.035 127.5L233.956 116.532C234.017 116.603 234.078 116.674 234.139 116.746L240.884 110.651L246.553 105.839L246.264 105.79L247 105.125C243.53 100.776 239.174 97.446 233.935 95.1355C228.763 92.8249 222.877 91.6697 216.276 91.6697C210.628 91.6697 205.388 92.5871 200.557 94.4219C195.794 96.1888 191.643 98.7372 188.104 102.067C184.634 105.397 181.912 109.338 179.938 113.892C177.965 118.377 176.978 123.338 176.978 128.774C176.978 134.211 177.965 139.206 179.938 143.759C181.912 148.244 184.634 152.151 188.104 155.481C191.643 158.811 195.794 161.394 200.557 163.228Z" fill="#1D3557"/>
<path d="M171.275 127.5C171.275 149.315 152.995 167 130.446 167C107.896 167 89.6167 149.315 89.6167 127.5C89.6167 105.685 107.896 88 130.446 88C152.995 88 171.275 105.685 171.275 127.5Z" fill="#E63946"/>
</svg>
