<svg width="329" height="68" viewBox="0 0 329 68" fill="none" xmlns="http://www.w3.org/2000/svg">
<rect width="329" height="68" fill="#1D3557"/>
<path d="M21.8 47.9999V19.9999H35.04C38.1334 19.9999 40.8534 20.5733 43.2001 21.7199C45.5467 22.8666 47.3734 24.4799 48.68 26.5599C50.0134 28.6399 50.6801 31.1199 50.6801 33.9999C50.6801 36.8533 50.0134 39.3333 48.68 41.4399C47.3734 43.5199 45.5467 45.1333 43.2001 46.2799C40.8534 47.4266 38.1334 47.9999 35.04 47.9999H21.8ZM29.72 41.6799H34.72C36.32 41.6799 37.7067 41.3866 38.88 40.7999C40.08 40.1866 41.0134 39.3066 41.68 38.1599C42.3467 36.9866 42.68 35.5999 42.68 33.9999C42.68 32.3733 42.3467 30.9866 41.68 29.8399C41.0134 28.6933 40.08 27.8266 38.88 27.2399C37.7067 26.6266 36.32 26.3199 34.72 26.3199H29.72V41.6799Z" fill="#EEEFEE"/>
<path d="M102.635 48.5599C100.422 48.5599 98.3684 48.2133 96.4751 47.5199C94.6084 46.7999 92.9817 45.7866 91.595 44.4799C90.235 43.1733 89.1684 41.6399 88.3951 39.8799C87.6217 38.0933 87.235 36.1333 87.235 33.9999C87.235 31.8666 87.6217 29.9199 88.3951 28.1599C89.1684 26.3733 90.235 24.8266 91.595 23.5199C92.9817 22.2133 94.6084 21.2133 96.4751 20.5199C98.3684 19.7999 100.422 19.4399 102.635 19.4399C105.222 19.4399 107.528 19.8933 109.555 20.7999C111.608 21.7066 113.315 23.0133 114.675 24.7199L109.635 29.2799C108.728 28.2133 107.728 27.3999 106.635 26.8399C105.568 26.2799 104.368 25.9999 103.035 25.9999C101.888 25.9999 100.835 26.1866 99.8751 26.5599C98.9151 26.9333 98.0884 27.4799 97.3951 28.1999C96.7284 28.8933 96.1951 29.7333 95.7951 30.7199C95.4217 31.7066 95.235 32.7999 95.235 33.9999C95.235 35.1999 95.4217 36.2933 95.7951 37.2799C96.1951 38.2666 96.7284 39.1199 97.3951 39.8399C98.0884 40.5333 98.9151 41.0666 99.8751 41.4399C100.835 41.8133 101.888 41.9999 103.035 41.9999C104.368 41.9999 105.568 41.7199 106.635 41.1599C107.728 40.5999 108.728 39.7866 109.635 38.7199L114.675 43.2799C113.315 44.9599 111.608 46.2666 109.555 47.1999C107.528 48.1066 105.222 48.5599 102.635 48.5599Z" fill="#EEEFEE"/>
<path d="M118.206 47.9999V19.9999H131.006C133.566 19.9999 135.766 20.4133 137.606 21.2399C139.473 22.0666 140.913 23.2666 141.926 24.8399C142.94 26.3866 143.446 28.2266 143.446 30.3599C143.446 32.4666 142.94 34.2933 141.926 35.8399C140.913 37.3599 139.473 38.5333 137.606 39.3599C135.766 40.1599 133.566 40.5599 131.006 40.5599H122.606L126.126 37.2399V47.9999H118.206ZM135.526 47.9999L128.566 37.7999H137.006L144.006 47.9999H135.526ZM126.126 38.0799L122.606 34.4399H130.526C132.18 34.4399 133.406 34.0799 134.206 33.3599C135.033 32.6399 135.446 31.6399 135.446 30.3599C135.446 29.0533 135.033 28.0399 134.206 27.3199C133.406 26.5999 132.18 26.2399 130.526 26.2399H122.606L126.126 22.5999V38.0799Z" fill="#EEEFEE"/>
<path d="M158.816 48.3599C156.256 48.3599 154.016 47.8799 152.096 46.9199C150.202 45.9333 148.722 44.5999 147.656 42.9199C146.616 41.2133 146.096 39.2799 146.096 37.1199C146.096 34.9599 146.602 33.0399 147.616 31.3599C148.656 29.6533 150.082 28.3333 151.896 27.3999C153.709 26.4399 155.749 25.9599 158.016 25.9599C160.149 25.9599 162.096 26.3999 163.856 27.2799C165.616 28.1333 167.016 29.3999 168.056 31.0799C169.096 32.7599 169.616 34.7999 169.616 37.1999C169.616 37.4666 169.602 37.7733 169.576 38.1199C169.549 38.4666 169.522 38.7866 169.496 39.0799H152.336V35.0799H165.456L162.576 36.1999C162.602 35.2133 162.416 34.3599 162.016 33.6399C161.642 32.9199 161.109 32.3599 160.416 31.9599C159.749 31.5599 158.962 31.3599 158.056 31.3599C157.149 31.3599 156.349 31.5599 155.656 31.9599C154.989 32.3599 154.469 32.9333 154.096 33.6799C153.722 34.3999 153.536 35.2533 153.536 36.2399V37.3999C153.536 38.4666 153.749 39.3866 154.176 40.1599C154.629 40.9333 155.269 41.5333 156.096 41.9599C156.922 42.3599 157.909 42.5599 159.056 42.5599C160.122 42.5599 161.029 42.4133 161.776 42.1199C162.549 41.7999 163.309 41.3199 164.056 40.6799L168.056 44.8399C167.016 45.9866 165.736 46.8666 164.216 47.4799C162.696 48.0666 160.896 48.3599 158.816 48.3599Z" fill="#EEEFEE"/>
<path d="M187.24 25.9599C188.92 25.9599 190.44 26.3066 191.8 26.9999C193.16 27.6666 194.226 28.7066 195 30.1199C195.8 31.5333 196.2 33.3599 196.2 35.5999V47.9999H188.6V36.8399C188.6 35.2933 188.28 34.1733 187.64 33.4799C187.026 32.7599 186.16 32.3999 185.04 32.3999C184.24 32.3999 183.506 32.5866 182.84 32.9599C182.173 33.3066 181.653 33.8533 181.28 34.5999C180.906 35.3466 180.72 36.3199 180.72 37.5199V47.9999H173.12V26.3199H180.36V32.4799L178.96 30.6799C179.786 29.1066 180.92 27.9333 182.36 27.1599C183.8 26.3599 185.426 25.9599 187.24 25.9599Z" fill="#EEEFEE"/>
<path d="M214.211 47.9999V43.9599L213.691 42.9599V35.5199C213.691 34.3199 213.318 33.3999 212.571 32.7599C211.851 32.0933 210.691 31.7599 209.091 31.7599C208.051 31.7599 206.998 31.9333 205.931 32.2799C204.865 32.5999 203.958 33.0533 203.211 33.6399L200.651 28.4799C201.878 27.6799 203.345 27.0666 205.051 26.6399C206.785 26.1866 208.505 25.9599 210.211 25.9599C213.731 25.9599 216.451 26.7733 218.371 28.3999C220.318 29.9999 221.291 32.5199 221.291 35.9599V47.9999H214.211ZM207.811 48.3599C206.078 48.3599 204.611 48.0666 203.411 47.4799C202.211 46.8933 201.291 46.0933 200.651 45.0799C200.038 44.0666 199.731 42.9333 199.731 41.6799C199.731 40.3466 200.065 39.1999 200.731 38.2399C201.425 37.2533 202.478 36.5066 203.891 35.9999C205.305 35.4666 207.131 35.1999 209.371 35.1999H214.491V39.1599H210.411C209.185 39.1599 208.318 39.3599 207.811 39.7599C207.331 40.1599 207.091 40.6933 207.091 41.3599C207.091 42.0266 207.345 42.5599 207.851 42.9599C208.358 43.3599 209.051 43.5599 209.931 43.5599C210.758 43.5599 211.505 43.3599 212.171 42.9599C212.865 42.5333 213.371 41.8933 213.691 41.0399L214.731 43.8399C214.331 45.3333 213.545 46.4666 212.371 47.2399C211.225 47.9866 209.705 48.3599 207.811 48.3599Z" fill="#EEEFEE"/>
<path d="M254.328 25.9599C256.008 25.9599 257.502 26.3066 258.808 26.9999C260.142 27.6666 261.182 28.7066 261.928 30.1199C262.702 31.5333 263.088 33.3599 263.088 35.5999V47.9999H255.488V36.8399C255.488 35.2933 255.195 34.1733 254.608 33.4799C254.022 32.7599 253.222 32.3999 252.208 32.3999C251.488 32.3999 250.835 32.5733 250.248 32.9199C249.662 33.2666 249.208 33.7999 248.888 34.5199C248.568 35.2133 248.408 36.1199 248.408 37.2399V47.9999H240.808V36.8399C240.808 35.2933 240.515 34.1733 239.928 33.4799C239.368 32.7599 238.568 32.3999 237.528 32.3999C236.782 32.3999 236.115 32.5733 235.528 32.9199C234.968 33.2666 234.515 33.7999 234.168 34.5199C233.848 35.2133 233.688 36.1199 233.688 37.2399V47.9999H226.088V26.3199H233.328V32.3599L231.888 30.6399C232.688 29.0933 233.782 27.9333 235.168 27.1599C236.555 26.3599 238.102 25.9599 239.808 25.9599C241.755 25.9599 243.462 26.4666 244.928 27.4799C246.422 28.4666 247.422 30.0133 247.928 32.1199L245.448 31.5999C246.222 29.8399 247.382 28.4666 248.928 27.4799C250.502 26.4666 252.302 25.9599 254.328 25.9599Z" fill="#EEEFEE"/>
<path d="M279.519 48.3599C276.959 48.3599 274.719 47.8799 272.799 46.9199C270.905 45.9333 269.425 44.5999 268.359 42.9199C267.319 41.2133 266.799 39.2799 266.799 37.1199C266.799 34.9599 267.305 33.0399 268.319 31.3599C269.359 29.6533 270.785 28.3333 272.599 27.3999C274.412 26.4399 276.452 25.9599 278.719 25.9599C280.852 25.9599 282.799 26.3999 284.559 27.2799C286.319 28.1333 287.719 29.3999 288.759 31.0799C289.799 32.7599 290.319 34.7999 290.319 37.1999C290.319 37.4666 290.305 37.7733 290.279 38.1199C290.252 38.4666 290.225 38.7866 290.199 39.0799H273.039V35.0799H286.159L283.279 36.1999C283.305 35.2133 283.119 34.3599 282.719 33.6399C282.345 32.9199 281.812 32.3599 281.119 31.9599C280.452 31.5599 279.665 31.3599 278.759 31.3599C277.852 31.3599 277.052 31.5599 276.359 31.9599C275.692 32.3599 275.172 32.9333 274.799 33.6799C274.425 34.3999 274.239 35.2533 274.239 36.2399V37.3999C274.239 38.4666 274.452 39.3866 274.879 40.1599C275.332 40.9333 275.972 41.5333 276.799 41.9599C277.625 42.3599 278.612 42.5599 279.759 42.5599C280.825 42.5599 281.732 42.4133 282.479 42.1199C283.252 41.7999 284.012 41.3199 284.759 40.6799L288.759 44.8399C287.719 45.9866 286.439 46.8666 284.919 47.4799C283.399 48.0666 281.599 48.3599 279.519 48.3599Z" fill="#EEEFEE"/>
<path d="M293.823 47.9999V26.3199H301.063V32.6399L299.983 30.8399C300.623 29.2133 301.663 27.9999 303.103 27.1999C304.543 26.3733 306.29 25.9599 308.343 25.9599V32.7999C307.996 32.7466 307.69 32.7199 307.423 32.7199C307.183 32.6933 306.916 32.6799 306.623 32.6799C305.076 32.6799 303.823 33.1066 302.863 33.9599C301.903 34.7866 301.423 36.1466 301.423 38.0399V47.9999H293.823Z" fill="#EEEFEE"/>
<path d="M38.5 24H25V43L29 45L39.5 43L46.5 39V33.5L44.5 28.5L38.5 24Z" fill="#EEEFEE"/>
<path d="M104.5 33.5L114.5 25L108.5 24H100L91.5 30V40.5L104.5 45L114.5 43L104.5 33.5Z" fill="#EEEFEE"/>
<path d="M85 33.5C85 42.0604 77.8366 49 69 49C60.1634 49 53 42.0604 53 33.5C53 24.9396 60.1634 18 69 18C77.8366 18 85 24.9396 85 33.5Z" fill="#E63946"/>
</svg>
