<svg width="120" height="16" viewBox="0 0 288 31" fill="none" xmlns="http://www.w3.org/2000/svg">
<path d="M0.800049 29.9999V1.99994H14.04C17.1334 1.99994 19.8534 2.57328 22.2001 3.71994C24.5467 4.86661 26.3734 6.47994 27.68 8.55994C29.0134 10.6399 29.6801 13.1199 29.6801 15.9999C29.6801 18.8533 29.0134 21.3333 27.68 23.4399C26.3734 25.5199 24.5467 27.1333 22.2001 28.2799C19.8534 29.4266 17.1334 29.9999 14.04 29.9999H0.800049ZM8.72005 23.6799H13.72C15.32 23.6799 16.7067 23.3866 17.88 22.7999C19.08 22.1866 20.0134 21.3066 20.68 20.1599C21.3467 18.9866 21.68 17.5999 21.68 15.9999C21.68 14.3733 21.3467 12.9866 20.68 11.8399C20.0134 10.6933 19.08 9.82661 17.88 9.23994C16.7067 8.62661 15.32 8.31994 13.72 8.31994H8.72005V23.6799Z" fill="#EEEFEE"/>
<path d="M81.635 30.5599C79.4217 30.5599 77.3684 30.2133 75.4751 29.5199C73.6084 28.7999 71.9817 27.7866 70.595 26.4799C69.235 25.1733 68.1684 23.6399 67.3951 21.8799C66.6217 20.0933 66.235 18.1333 66.235 15.9999C66.235 13.8666 66.6217 11.9199 67.3951 10.1599C68.1684 8.37328 69.235 6.82661 70.595 5.51994C71.9817 4.21328 73.6084 3.21328 75.4751 2.51994C77.3684 1.79994 79.4217 1.43994 81.635 1.43994C84.2217 1.43994 86.5284 1.89328 88.555 2.79994C90.6084 3.70661 92.315 5.01328 93.675 6.71994L88.635 11.2799C87.7284 10.2133 86.7284 9.39994 85.635 8.83994C84.5684 8.27994 83.3684 7.99994 82.035 7.99994C80.8884 7.99994 79.8351 8.18661 78.8751 8.55994C77.9151 8.93328 77.0884 9.47994 76.3951 10.1999C75.7284 10.8933 75.1951 11.7333 74.7951 12.7199C74.4217 13.7066 74.235 14.7999 74.235 15.9999C74.235 17.1999 74.4217 18.2933 74.7951 19.2799C75.1951 20.2666 75.7284 21.1199 76.3951 21.8399C77.0884 22.5333 77.9151 23.0666 78.8751 23.4399C79.8351 23.8133 80.8884 23.9999 82.035 23.9999C83.3684 23.9999 84.5684 23.7199 85.635 23.1599C86.7284 22.5999 87.7284 21.7866 88.635 20.7199L93.675 25.2799C92.315 26.9599 90.6084 28.2666 88.555 29.1999C86.5284 30.1066 84.2217 30.5599 81.635 30.5599Z" fill="#EEEFEE"/>
<path d="M97.2063 29.9999V1.99994H110.006C112.566 1.99994 114.766 2.41327 116.606 3.23994C118.473 4.06661 119.913 5.26661 120.926 6.83994C121.94 8.38661 122.446 10.2266 122.446 12.3599C122.446 14.4666 121.94 16.2933 120.926 17.8399C119.913 19.3599 118.473 20.5333 116.606 21.3599C114.766 22.1599 112.566 22.5599 110.006 22.5599H101.606L105.126 19.2399V29.9999H97.2063ZM114.526 29.9999L107.566 19.7999H116.006L123.006 29.9999H114.526ZM105.126 20.0799L101.606 16.4399H109.526C111.18 16.4399 112.406 16.0799 113.206 15.3599C114.033 14.6399 114.446 13.6399 114.446 12.3599C114.446 11.0533 114.033 10.0399 113.206 9.31994C112.406 8.59994 111.18 8.23994 109.526 8.23994H101.606L105.126 4.59994V20.0799Z" fill="#EEEFEE"/>
<path d="M137.816 30.3599C135.256 30.3599 133.016 29.8799 131.096 28.9199C129.202 27.9333 127.722 26.5999 126.656 24.9199C125.616 23.2133 125.096 21.2799 125.096 19.1199C125.096 16.9599 125.602 15.0399 126.616 13.3599C127.656 11.6533 129.082 10.3333 130.896 9.39994C132.709 8.43994 134.749 7.95994 137.016 7.95994C139.149 7.95994 141.096 8.39994 142.856 9.27994C144.616 10.1333 146.016 11.3999 147.056 13.0799C148.096 14.7599 148.616 16.7999 148.616 19.1999C148.616 19.4666 148.602 19.7733 148.576 20.1199C148.549 20.4666 148.522 20.7866 148.496 21.0799H131.336V17.0799H144.456L141.576 18.1999C141.602 17.2133 141.416 16.3599 141.016 15.6399C140.642 14.9199 140.109 14.3599 139.416 13.9599C138.749 13.5599 137.962 13.3599 137.056 13.3599C136.149 13.3599 135.349 13.5599 134.656 13.9599C133.989 14.3599 133.469 14.9333 133.096 15.6799C132.722 16.3999 132.536 17.2533 132.536 18.2399V19.3999C132.536 20.4666 132.749 21.3866 133.176 22.1599C133.629 22.9333 134.269 23.5333 135.096 23.9599C135.922 24.3599 136.909 24.5599 138.056 24.5599C139.122 24.5599 140.029 24.4133 140.776 24.1199C141.549 23.7999 142.309 23.3199 143.056 22.6799L147.056 26.8399C146.016 27.9866 144.736 28.8666 143.216 29.4799C141.696 30.0666 139.896 30.3599 137.816 30.3599Z" fill="#EEEFEE"/>
<path d="M166.24 7.95994C167.92 7.95994 169.44 8.30661 170.8 8.99994C172.16 9.66661 173.226 10.7066 174 12.1199C174.8 13.5333 175.2 15.3599 175.2 17.5999V29.9999H167.6V18.8399C167.6 17.2933 167.28 16.1733 166.64 15.4799C166.026 14.7599 165.16 14.3999 164.04 14.3999C163.24 14.3999 162.506 14.5866 161.84 14.9599C161.173 15.3066 160.653 15.8533 160.28 16.5999C159.906 17.3466 159.72 18.3199 159.72 19.5199V29.9999H152.12V8.31994H159.36V14.4799L157.96 12.6799C158.786 11.1066 159.92 9.93328 161.36 9.15994C162.8 8.35994 164.426 7.95994 166.24 7.95994Z" fill="#EEEFEE"/>
<path d="M193.211 29.9999V25.9599L192.691 24.9599V17.5199C192.691 16.3199 192.318 15.3999 191.571 14.7599C190.851 14.0933 189.691 13.7599 188.091 13.7599C187.051 13.7599 185.998 13.9333 184.931 14.2799C183.865 14.5999 182.958 15.0533 182.211 15.6399L179.651 10.4799C180.878 9.67994 182.345 9.06661 184.051 8.63994C185.785 8.18661 187.505 7.95994 189.211 7.95994C192.731 7.95994 195.451 8.77328 197.371 10.3999C199.318 11.9999 200.291 14.5199 200.291 17.9599V29.9999H193.211ZM186.811 30.3599C185.078 30.3599 183.611 30.0666 182.411 29.4799C181.211 28.8933 180.291 28.0933 179.651 27.0799C179.038 26.0666 178.731 24.9333 178.731 23.6799C178.731 22.3466 179.065 21.1999 179.731 20.2399C180.425 19.2533 181.478 18.5066 182.891 17.9999C184.305 17.4666 186.131 17.1999 188.371 17.1999H193.491V21.1599H189.411C188.185 21.1599 187.318 21.3599 186.811 21.7599C186.331 22.1599 186.091 22.6933 186.091 23.3599C186.091 24.0266 186.345 24.5599 186.851 24.9599C187.358 25.3599 188.051 25.5599 188.931 25.5599C189.758 25.5599 190.505 25.3599 191.171 24.9599C191.865 24.5333 192.371 23.8933 192.691 23.0399L193.731 25.8399C193.331 27.3333 192.545 28.4666 191.371 29.2399C190.225 29.9866 188.705 30.3599 186.811 30.3599Z" fill="#EEEFEE"/>
<path d="M233.328 7.95994C235.008 7.95994 236.502 8.30661 237.808 8.99994C239.142 9.66661 240.182 10.7066 240.928 12.1199C241.702 13.5333 242.088 15.3599 242.088 17.5999V29.9999H234.488V18.8399C234.488 17.2933 234.195 16.1733 233.608 15.4799C233.022 14.7599 232.222 14.3999 231.208 14.3999C230.488 14.3999 229.835 14.5733 229.248 14.9199C228.662 15.2666 228.208 15.7999 227.888 16.5199C227.568 17.2133 227.408 18.1199 227.408 19.2399V29.9999H219.808V18.8399C219.808 17.2933 219.515 16.1733 218.928 15.4799C218.368 14.7599 217.568 14.3999 216.528 14.3999C215.782 14.3999 215.115 14.5733 214.528 14.9199C213.968 15.2666 213.515 15.7999 213.168 16.5199C212.848 17.2133 212.688 18.1199 212.688 19.2399V29.9999H205.088V8.31994H212.328V14.3599L210.888 12.6399C211.688 11.0933 212.782 9.93328 214.168 9.15994C215.555 8.35994 217.102 7.95994 218.808 7.95994C220.755 7.95994 222.462 8.46661 223.928 9.47994C225.422 10.4666 226.422 12.0133 226.928 14.1199L224.448 13.5999C225.222 11.8399 226.382 10.4666 227.928 9.47994C229.502 8.46661 231.302 7.95994 233.328 7.95994Z" fill="#EEEFEE"/>
<path d="M258.519 30.3599C255.959 30.3599 253.719 29.8799 251.799 28.9199C249.905 27.9333 248.425 26.5999 247.359 24.9199C246.319 23.2133 245.799 21.2799 245.799 19.1199C245.799 16.9599 246.305 15.0399 247.319 13.3599C248.359 11.6533 249.785 10.3333 251.599 9.39994C253.412 8.43994 255.452 7.95994 257.719 7.95994C259.852 7.95994 261.799 8.39994 263.559 9.27994C265.319 10.1333 266.719 11.3999 267.759 13.0799C268.799 14.7599 269.319 16.7999 269.319 19.1999C269.319 19.4666 269.305 19.7733 269.279 20.1199C269.252 20.4666 269.225 20.7866 269.199 21.0799H252.039V17.0799H265.159L262.279 18.1999C262.305 17.2133 262.119 16.3599 261.719 15.6399C261.345 14.9199 260.812 14.3599 260.119 13.9599C259.452 13.5599 258.665 13.3599 257.759 13.3599C256.852 13.3599 256.052 13.5599 255.359 13.9599C254.692 14.3599 254.172 14.9333 253.799 15.6799C253.425 16.3999 253.239 17.2533 253.239 18.2399V19.3999C253.239 20.4666 253.452 21.3866 253.879 22.1599C254.332 22.9333 254.972 23.5333 255.799 23.9599C256.625 24.3599 257.612 24.5599 258.759 24.5599C259.825 24.5599 260.732 24.4133 261.479 24.1199C262.252 23.7999 263.012 23.3199 263.759 22.6799L267.759 26.8399C266.719 27.9866 265.439 28.8666 263.919 29.4799C262.399 30.0666 260.599 30.3599 258.519 30.3599Z" fill="#EEEFEE"/>
<path d="M272.823 29.9999V8.31994H280.063V14.6399L278.983 12.8399C279.623 11.2133 280.663 9.99994 282.103 9.19994C283.543 8.37328 285.29 7.95994 287.343 7.95994V14.7999C286.996 14.7466 286.69 14.7199 286.423 14.7199C286.183 14.6933 285.916 14.6799 285.623 14.6799C284.076 14.6799 282.823 15.1066 281.863 15.9599C280.903 16.7866 280.423 18.1466 280.423 20.0399V29.9999H272.823Z" fill="#EEEFEE"/>
<path d="M17.5 6H4V25L8 27L18.5 25L25.5 21V15.5L23.5 10.5L17.5 6Z" fill="#EEEFEE"/>
<path d="M83.5 15.5L93.5 7L87.5 6H79L70.5 12V22.5L83.5 27L93.5 25L83.5 15.5Z" fill="#EEEFEE"/>
<path d="M64 15.5C64 24.0604 56.8366 31 48 31C39.1634 31 32 24.0604 32 15.5C32 6.93959 39.1634 0 48 0C56.8366 0 64 6.93959 64 15.5Z" fill="#E63946"/>
</svg>
